<svg version="1.1" viewBox="0.0 0.0 960.0 720.0" fill="none" stroke="none" stroke-linecap="square" stroke-miterlimit="10" xmlns:xlink="http://www.w3.org/1999/xlink" xmlns="http://www.w3.org/2000/svg"><clipPath id="p.0"><path d="m0 0l960.0 0l0 720.0l-960.0 0l0 -720.0z" clip-rule="nonzero"/></clipPath><g clip-path="url(#p.0)"><path fill="#000000" fill-opacity="0.0" d="m0 0l960.0 0l0 720.0l-960.0 0z" fill-rule="evenodd"/><path fill="#ffffff" d="m319.0982 46.682613l-225.13173 70.24765l-18.568993 76.49936l-67.30519 131.13544l-6.964195 346.5716l227.44876 -3.121399l44.10219 -128.01404l18.950745 1.9348755l189.98166 -65.94852l57.971313 207.63925l-32.490784 -148.30994l31.39154 -37.74939l62.927856 3.5996094l2.4157715 46.763916l10.893921 39.56909l13.309631 19.18457l11.354675 -5.80011l61.24933 -20.579285l81.07562 -32.374268l71.201965 -36.031494l-9.4852295 -135.4346l18.766418 -78.43866l-30.173767 -113.96536l-58.023987 -81.17929l-69.62219 -79.61637l-171.75494 -28.101717l-169.42477 17.170074z" fill-rule="evenodd"/><path stroke="#000000" stroke-width="1.0" stroke-linejoin="round" stroke-linecap="butt" d="m319.0982 46.682613l-225.13173 70.24765l-18.568993 76.49936l-67.30519 131.13544l-6.964195 346.5716l227.44876 -3.121399l44.10219 -128.01404l18.950745 1.9348755l189.98166 -65.94852l57.971313 207.63925l-32.490784 -148.30994l31.39154 -37.74939l62.927856 3.5996094l2.4157715 46.763916l10.893921 39.56909l13.309631 19.18457l11.354675 -5.80011l61.24933 -20.579285l81.07562 -32.374268l71.201965 -36.031494l-9.4852295 -135.4346l18.766418 -78.43866l-30.173767 -113.96536l-58.023987 -81.17929l-69.62219 -79.61637l-171.75494 -28.101717l-169.42477 17.170074z" fill-rule="evenodd"/><path fill="#000000" d="m448.3041 67.18288l-14.277283 19.025223l-12.631653 35.46032l-20.043457 5.910797l-11.808838 4.431984l26.632446 5.3573456l1.3757324 18.471771l4.120575 6.645767l5.489746 0.7394104l6.865448 -6.4642334l17.022125 -1.2928467l3.2977905 -7.7570953l23.341248 -18.285812l23.887573 -16.807014l-7.9647217 -17.360458l3.8441467 -11.821587l-11.532379 -12.742516l-11.808868 -4.431984l-17.298584 0.18152618z" fill-rule="evenodd"/><path stroke="#000000" stroke-width="1.0" stroke-linejoin="round" stroke-linecap="butt" d="m448.3041 67.18288l-14.277283 19.025223l-12.631653 35.46032l-20.043457 5.910797l-11.808838 4.431984l26.632446 5.3573456l1.3757324 18.471771l4.120575 6.645767l5.489746 0.7394104l6.865448 -6.4642334l17.022125 -1.2928467l3.2977905 -7.7570953l23.341248 -18.285812l23.887573 -16.807014l-7.9647217 -17.360458l3.8441467 -11.821587l-11.532379 -12.742516l-11.808868 -4.431984l-17.298584 0.18152618z" fill-rule="evenodd"/><path fill="#000000" d="m672.43243 81.30237l-27.73169 29.367996l-16.19934 15.14225l3.8441162 16.807014l18.397827 22.350327l26.632507 16.439514l16.752197 -10.342773l22.511902 3.87854l17.851501 -5.1713867l-3.0213623 -24.382568l-26.362549 -57.996597l-4.9434204 -6.0923157l-23.341248 0.36748505z" fill-rule="evenodd"/><path stroke="#000000" stroke-width="1.0" stroke-linejoin="round" stroke-linecap="butt" d="m672.43243 81.30237l-27.73169 29.367996l-16.19934 15.14225l3.8441162 16.807014l18.397827 22.350327l26.632507 16.439514l16.752197 -10.342773l22.511902 3.87854l17.851501 -5.1713867l-3.0213623 -24.382568l-26.362549 -57.996597l-4.9434204 -6.0923157l-23.341248 0.36748505z" fill-rule="evenodd"/><path fill="#000000" d="m738.82434 72.05775l34.2088 47.31732l9.511597 39.09977l-26.829956 27.016968l-1.8035278 15.323776l15.448914 35.176956l8.511047 16.390823l8.906006 48.0213l-35.110596 68.56076l-83.8797 54.30844l-10.788574 47.144653l-3.5874634 25.834808l0.5726929 24.4534l-46.13611 23.067566l-4.225952 40.25537l34.85388 50.08014l74.06537 -35.929626l-5.0026855 24.192139l-13.513672 36.394592l9.695923 24.843018l197.85419 -39.87018l7.385498 -59.780884l-0.34228516 -25.9057l0.07897949 -16.27124l-4.041626 -96.374695l-30.891235 -64.26602l-12.69751 -34.021362l12.348633 -83.260254l-34.08374 -108.572586l-43.154297 -55.229378l-77.389465 -59.333717z" fill-rule="evenodd"/><path stroke="#000000" stroke-width="1.0" stroke-linejoin="round" stroke-linecap="butt" d="m738.82434 72.05775l34.2088 47.31732l9.511597 39.09977l-26.829956 27.016968l-1.8035278 15.323776l15.448914 35.176956l8.511047 16.390823l8.906006 48.0213l-35.110596 68.56076l-83.8797 54.30844l-10.788574 47.144653l-3.5874634 25.834808l0.5726929 24.4534l-46.13611 23.067566l-4.225952 40.25537l34.85388 50.08014l74.06537 -35.929626l-5.0026855 24.192139l-13.513672 36.394592l9.695923 24.843018l197.85419 -39.87018l7.385498 -59.780884l-0.34228516 -25.9057l0.07897949 -16.27124l-4.041626 -96.374695l-30.891235 -64.26602l-12.69751 -34.021362l12.348633 -83.260254l-34.08374 -108.572586l-43.154297 -55.229378l-77.389465 -59.333717z" fill-rule="evenodd"/><path fill="#000000" d="m338.81833 33.530186l-42.48947 66.28941l-4.759094 72.27548l15.501587 49.2256l7.227478 27.17192l-15.205353 33.038437l0.756958 65.99277l38.276733 62.64554l86.27573 35.57544l58.2807 2.5237122l55.647705 101.696594l25.111938 40.259827l31.944458 65.913025l14.369385 26.919556l-231.00323 26.051758l-114.38919 -197.31857l-77.32364 -83.122986l-30.10138 -68.01175l17.259094 -88.462616l25.664825 -101.962265l54.25226 -87.53726z" fill-rule="evenodd"/><path stroke="#000000" stroke-width="1.0" stroke-linejoin="round" stroke-linecap="butt" d="m338.81833 33.530186l-42.48947 66.28941l-4.759094 72.27548l15.501587 49.2256l7.227478 27.17192l-15.205353 33.038437l0.756958 65.99277l38.276733 62.64554l86.27573 35.57544l58.2807 2.5237122l55.647705 101.696594l25.111938 40.259827l31.944458 65.913025l14.369385 26.919556l-231.00323 26.051758l-114.38919 -197.31857l-77.32364 -83.122986l-30.10138 -68.01175l17.259094 -88.462616l25.664825 -101.962265l54.25226 -87.53726z" fill-rule="evenodd"/><path fill="#000000" d="m8.091947 374.52188l-9.287787 296.61545l236.73656 -3.121399l37.13141 -137.38275l-85.87419 -45.27176l-48.742783 -67.13068l-37.1314 -31.223145z" fill-rule="evenodd"/><path stroke="#000000" stroke-width="1.0" stroke-linejoin="round" stroke-linecap="butt" d="m8.091947 374.52188l-9.287787 296.61545l236.73656 -3.121399l37.13141 -137.38275l-85.87419 -45.27176l-48.742783 -67.13068l-37.1314 -31.223145z" fill-rule="evenodd"/><path fill="#000000" d="m467.63666 380.76474l32.490784 -26.538788l16.245422 -28.101715l-18.562439 -15.611572l-27.856781 1.5629272l-34.814392 39.02893z" fill-rule="evenodd"/><path stroke="#000000" stroke-width="1.0" stroke-linejoin="round" stroke-linecap="butt" d="m467.63666 380.76474l32.490784 -26.538788l16.245422 -28.101715l-18.562439 -15.611572l-27.856781 1.5629272l-34.814392 39.02893z" fill-rule="evenodd"/><path fill="#000000" d="m613.8518 335.49295l0 18.733002l18.56903 31.223145l39.454956 -4.6843567l9.287781 -26.538788l-39.454956 -43.713287l-18.56903 9.368713z" fill-rule="evenodd"/><path stroke="#000000" stroke-width="1.0" stroke-linejoin="round" stroke-linecap="butt" d="m613.8518 335.49295l0 18.733002l18.56903 31.223145l39.454956 -4.6843567l9.287781 -26.538788l-39.454956 -43.713287l-18.56903 9.368713z" fill-rule="evenodd"/><path fill="#000000" d="m501.57556 433.3199l15.047424 0.94747925l14.580017 3.1657104l9.557678 1.894989l9.880188 -1.5806274l20.688538 -4.1131897l22.255188 -0.20809937l5.015747 1.4743652l-2.0339355 6.433258l-8.15564 4.4275513l-18.64795 6.114441l-19.753845 2.4263l-26.171692 -2.3200378l-15.679291 -9.700775z" fill-rule="evenodd"/><path stroke="#000000" stroke-width="1.0" stroke-linejoin="round" stroke-linecap="butt" d="m501.57556 433.3199l15.047424 0.94747925l14.580017 3.1657104l9.557678 1.894989l9.880188 -1.5806274l20.688538 -4.1131897l22.255188 -0.20809937l5.015747 1.4743652l-2.0339355 6.433258l-8.15564 4.4275513l-18.64795 6.114441l-19.753845 2.4263l-26.171692 -2.3200378l-15.679291 -9.700775z" fill-rule="evenodd"/><path fill="#000000" d="m514.2731 466.31848l14.106079 3.5863037l16.462646 -3.3737793l17.239319 1.5806274l14.422058 -1.894989l8.774414 -2.7450867l0.9412842 2.2137756l0.473938 4.0069275l-9.56427 4.427582l-18.963928 1.1600037l-29.002136 -1.4743652l-12.690918 -4.4275513z" fill-rule="evenodd"/><path stroke="#000000" stroke-width="1.0" stroke-linejoin="round" stroke-linecap="butt" d="m514.2731 466.31848l14.106079 3.5863037l16.462646 -3.3737793l17.239319 1.5806274l14.422058 -1.894989l8.774414 -2.7450867l0.9412842 2.2137756l0.473938 4.0069275l-9.56427 4.427582l-18.963928 1.1600037l-29.002136 -1.4743652l-12.690918 -4.4275513z" fill-rule="evenodd"/></g></svg>