<svg version="1.1" viewBox="0.0 0.0 960.0 720.0" fill="none" stroke="none" stroke-linecap="square" stroke-miterlimit="10" xmlns:xlink="http://www.w3.org/1999/xlink" xmlns="http://www.w3.org/2000/svg"><clipPath id="p.0"><path d="m0 0l960.0 0l0 720.0l-960.0 0l0 -720.0z" clip-rule="nonzero"/></clipPath><g clip-path="url(#p.0)"><path fill="#000000" fill-opacity="0.0" d="m0 0l960.0 0l0 720.0l-960.0 0z" fill-rule="evenodd"/><path fill="#ffffff" d="m319.101 47.15586l-225.13174 70.89312l-18.568993 77.20227l-67.30519 132.3404l-6.964195 349.75607l227.44876 -3.1501465l44.102173 -129.19025l18.562408 28.359924l37.138 111.85797l211.20334 4.727417l-32.490784 -149.67273l23.209595 -64.592865l76.59296 7.8775024l-6.9641724 42.53763l-51.059814 6.300232l0 86.65265l90.51477 -12.604919l-37.13794 89.80267l206.56274 4.727417l44.102173 -184.33282l-13.928406 -67.74301l23.209595 -148.0954l-30.173767 -115.01253l-58.023987 -81.92521l-69.62219 -80.34792l-171.75494 -28.359928l-169.42477 17.32784z" fill-rule="evenodd"/><path stroke="#000000" stroke-width="1.0" stroke-linejoin="round" stroke-linecap="butt" d="m319.101 47.15586l-225.13174 70.89312l-18.568993 77.20227l-67.30519 132.3404l-6.964195 349.75607l227.44876 -3.1501465l44.102173 -129.19025l18.562408 28.359924l37.138 111.85797l211.20334 4.727417l-32.490784 -149.67273l23.209595 -64.592865l76.59296 7.8775024l-6.9641724 42.53763l-51.059814 6.300232l0 86.65265l90.51477 -12.604919l-37.13794 89.80267l206.56274 4.727417l44.102173 -184.33282l-13.928406 -67.74301l23.209595 -148.0954l-30.173767 -115.01253l-58.023987 -81.92521l-69.62219 -80.34792l-171.75494 -28.359928l-169.42477 17.32784z" fill-rule="evenodd"/><path fill="#000000" d="m448.30722 67.84382l-14.277252 19.200035l-12.631653 35.786148l-20.043457 5.965103l-11.808838 4.472702l26.632446 5.4065704l1.3757324 18.64151l4.120575 6.706833l5.489746 0.74620056l6.865448 -6.523636l17.022125 -1.3047333l3.2977905 -7.828354l23.341248 -18.453842l23.887573 -16.961441l-7.9647217 -17.519974l3.8441467 -11.930206l-11.53241 -12.859596l-11.808838 -4.4727097l-17.298584 0.18319702z" fill-rule="evenodd"/><path stroke="#000000" stroke-width="1.0" stroke-linejoin="round" stroke-linecap="butt" d="m448.30722 67.84382l-14.277252 19.200035l-12.631653 35.786148l-20.043457 5.965103l-11.808838 4.472702l26.632446 5.4065704l1.3757324 18.64151l4.120575 6.706833l5.489746 0.74620056l6.865448 -6.523636l17.022125 -1.3047333l3.2977905 -7.828354l23.341248 -18.453842l23.887573 -16.961441l-7.9647217 -17.519974l3.8441467 -11.930206l-11.53241 -12.859596l-11.808838 -4.4727097l-17.298584 0.18319702z" fill-rule="evenodd"/><path fill="#000000" d="m704.43555 82.09304l-27.73169 29.637848l-16.19934 15.281387l3.8441772 16.961449l18.397827 22.55568l26.632446 16.590576l16.752258 -10.437805l22.51184 3.9141693l17.851501 -5.2189026l-3.0213013 -24.606598l-26.36261 -58.529503l-4.9433594 -6.1483l-23.341248 0.37086487z" fill-rule="evenodd"/><path stroke="#000000" stroke-width="1.0" stroke-linejoin="round" stroke-linecap="butt" d="m704.43555 82.09304l-27.73169 29.637848l-16.19934 15.281387l3.8441772 16.961449l18.397827 22.55568l26.632446 16.590576l16.752258 -10.437805l22.51184 3.9141693l17.851501 -5.2189026l-3.0213013 -24.606598l-26.36261 -58.529503l-4.9433594 -6.1483l-23.341248 0.37086487z" fill-rule="evenodd"/><path fill="#000000" d="m771.6815 103.871254l19.0495 46.89866l1.9220581 23.672745l-2.7514038 53.49826l-6.036133 14.35199l4.9434204 38.3956l3.567688 18.266174l-4.9434204 49.021057l-52.994995 56.66626l-95.833374 29.262512l-23.611145 42.68509l-10.709595 24.04361l-6.319092 23.860443l-50.79651 9.503906l-15.376526 37.837097l19.398376 58.247986l81.23358 -14.177734l-11.604797 22.055237l-23.209595 31.51007l2.3236084 26.782593l201.23102 16.496765l23.900696 -55.884277l6.9576416 -25.205383l4.647156 -15.755005l23.209595 -94.53009l-11.604797 -70.89761l-2.6263428 -36.51892l30.476562 -111.57648l-41.778564 -116.58534l-41.423157 -54.03891l-23.565063 -27.8863z" fill-rule="evenodd"/><path stroke="#000000" stroke-width="1.0" stroke-linejoin="round" stroke-linecap="butt" d="m771.6815 103.871254l19.0495 46.89866l1.9220581 23.672745l-2.7514038 53.49826l-6.036133 14.35199l4.9434204 38.3956l3.567688 18.266174l-4.9434204 49.021057l-52.994995 56.66626l-95.833374 29.262512l-23.611145 42.68509l-10.709595 24.04361l-6.319092 23.860443l-50.79651 9.503906l-15.376526 37.837097l19.398376 58.247986l81.23358 -14.177734l-11.604797 22.055237l-23.209595 31.51007l2.3236084 26.782593l201.23102 16.496765l23.900696 -55.884277l6.9576416 -25.205383l4.647156 -15.755005l23.209595 -94.53009l-11.604797 -70.89761l-2.6263428 -36.51892l30.476562 -111.57648l-41.778564 -116.58534l-41.423157 -54.03891l-23.565063 -27.8863z" fill-rule="evenodd"/><path fill="#000000" d="m451.6116 4.6182036l-62.671173 36.23744l-23.203003 69.3203l2.3170166 51.987984l0 28.35994l-23.209595 28.359924l-16.245422 64.592896l20.886017 70.89758l74.26938 56.71985l55.70697 17.32785l27.632996 113.43527l13.921814 45.687744l13.928345 72.47485l6.9642334 29.9328l-213.30975 6.3046875l-76.59297 -261.53067l-53.3768 -100.83481l-11.604797 -74.0477l39.455 -81.9252l51.059784 -92.95283l76.59299 -70.89758z" fill-rule="evenodd"/><path stroke="#000000" stroke-width="1.0" stroke-linejoin="round" stroke-linecap="butt" d="m451.6116 4.6182036l-62.671173 36.23744l-23.203003 69.3203l2.3170166 51.987984l0 28.35994l-23.209595 28.359924l-16.245422 64.592896l20.886017 70.89758l74.26938 56.71985l55.70697 17.32785l27.632996 113.43527l13.921814 45.687744l13.928345 72.47485l6.9642334 29.9328l-213.30975 6.3046875l-76.59297 -261.53067l-53.3768 -100.83481l-11.604797 -74.0477l39.455 -81.9252l51.059784 -92.95283l76.59299 -70.89758z" fill-rule="evenodd"/><path fill="#000000" d="m8.095084 378.0068l-9.287787 299.3409l236.73654 -3.1501465l37.131393 -138.64502l-85.874176 -45.687805l-48.742783 -67.74747l-37.131393 -31.51004z" fill-rule="evenodd"/><path stroke="#000000" stroke-width="1.0" stroke-linejoin="round" stroke-linecap="butt" d="m8.095084 378.0068l-9.287787 299.3409l236.73654 -3.1501465l37.131393 -138.64502l-85.874176 -45.687805l-48.742783 -67.74747l-37.131393 -31.51004z" fill-rule="evenodd"/><path fill="#000000" d="m467.63977 384.30704l32.490814 -26.782654l16.245392 -28.359924l-18.562408 -15.755035l-27.856781 1.577301l-34.814392 39.387543z" fill-rule="evenodd"/><path stroke="#000000" stroke-width="1.0" stroke-linejoin="round" stroke-linecap="butt" d="m467.63977 384.30704l32.490814 -26.782654l16.245392 -28.359924l-18.562408 -15.755035l-27.856781 1.577301l-34.814392 39.387543z" fill-rule="evenodd"/><path fill="#000000" d="m613.855 338.61926l0 18.90512l18.56897 31.51004l39.455017 -4.7273865l9.287781 -26.782654l-39.455017 -44.11496l-18.56897 9.454803z" fill-rule="evenodd"/><path stroke="#000000" stroke-width="1.0" stroke-linejoin="round" stroke-linecap="butt" d="m613.855 338.61926l0 18.90512l18.56897 31.51004l39.455017 -4.7273865l9.287781 -26.782654l-39.455017 -44.11496l-18.56897 9.454803z" fill-rule="evenodd"/><path fill="#000000" d="m501.5787 437.34506l15.047394 0.95617676l14.580078 3.1947937l9.557678 1.9124146l9.880188 -1.5951538l20.688538 -4.151001l22.255127 -0.20999146l5.015808 1.487915l-2.0339966 6.49234l-8.155579 4.4682617l-18.64801 6.170624l-19.753784 2.4486084l-26.171692 -2.3413696l-15.679321 -9.789917z" fill-rule="evenodd"/><path stroke="#000000" stroke-width="1.0" stroke-linejoin="round" stroke-linecap="butt" d="m501.5787 437.34506l15.047394 0.95617676l14.580078 3.1947937l9.557678 1.9124146l9.880188 -1.5951538l20.688538 -4.151001l22.255127 -0.20999146l5.015808 1.487915l-2.0339966 6.49234l-8.155579 4.4682617l-18.64801 6.170624l-19.753784 2.4486084l-26.171692 -2.3413696l-15.679321 -9.789917z" fill-rule="evenodd"/><path fill="#000000" d="m514.2762 470.64685l14.10614 3.6192627l16.462585 -3.4047852l17.23938 1.5951538l14.422058 -1.912384l8.774353 -2.7703247l0.9412842 2.2341309l0.473938 4.043762l-9.56427 4.468231l-18.963928 1.1706848l-29.002136 -1.4879456l-12.690857 -4.468231z" fill-rule="evenodd"/><path stroke="#000000" stroke-width="1.0" stroke-linejoin="round" stroke-linecap="butt" d="m514.2762 470.64685l14.10614 3.6192627l16.462585 -3.4047852l17.23938 1.5951538l14.422058 -1.912384l8.774353 -2.7703247l0.9412842 2.2341309l0.473938 4.043762l-9.56427 4.468231l-18.963928 1.1706848l-29.002136 -1.4879456l-12.690857 -4.468231z" fill-rule="evenodd"/></g></svg>